<?xml version="1.0" encoding="UTF-8"?>
<!DOCTYPE svg PUBLIC "-//W3C//DTD SVG 1.1//EN" "http://www.w3.org/Graphics/SVG/1.1/DTD/svg11.dtd">
<svg xmlns="http://www.w3.org/2000/svg" version="1.1" width="280px" height="280px" style="shape-rendering:geometricPrecision; text-rendering:geometricPrecision; image-rendering:optimizeQuality; fill-rule:evenodd; clip-rule:evenodd" xmlns:xlink="http://www.w3.org/1999/xlink">
<g><path style="opacity:1" fill="#010101" d="M 88.5,-0.5 C 89.8333,-0.5 91.1667,-0.5 92.5,-0.5C 94.8132,5.21206 98.8132,7.87872 104.5,7.5C 104.833,7.5 105.167,7.5 105.5,7.5C 105.414,8.4959 105.748,9.32924 106.5,10C 109.461,11.2647 112.461,12.4314 115.5,13.5C 117.464,10.9822 118.13,8.31551 117.5,5.5C 127.973,8.52082 138.306,10.8542 148.5,12.5C 148.833,12.5 149.167,12.5 149.5,12.5C 157.709,17.9495 166.376,22.9495 175.5,27.5C 176.575,28.5624 177.575,28.5624 178.5,27.5C 177.153,24.8068 175.82,22.1401 174.5,19.5C 174.56,18.9569 174.893,18.6236 175.5,18.5C 177.524,20.3581 179.691,22.0248 182,23.5C 182.464,22.9056 182.631,22.2389 182.5,21.5C 183.167,21.5 183.5,21.8333 183.5,22.5C 183.414,23.4959 183.748,24.3292 184.5,25C 194.448,30.7188 200.615,39.2188 203,50.5C 203.977,51.7736 204.811,51.7736 205.5,50.5C 209.146,47.5211 212.479,44.1877 215.5,40.5C 218.228,39.0598 220.395,39.7265 222,42.5C 221.664,48.6657 221.831,54.6657 222.5,60.5C 222.5,61.1667 222.5,61.8333 222.5,62.5C 221.275,63.1522 220.608,64.3189 220.5,66C 219.837,69.4726 219.504,72.9726 219.5,76.5C 226.128,77.3433 231.961,75.6766 237,71.5C 238.299,78.9518 237.132,85.9518 233.5,92.5C 234.658,93.9498 234.158,94.9498 232,95.5C 230.328,99.1895 230.495,102.856 232.5,106.5C 232.66,108.153 233.326,109.486 234.5,110.5C 234.756,112.937 235.423,115.271 236.5,117.5C 236.167,117.833 235.833,118.167 235.5,118.5C 233.189,117.039 230.856,116.706 228.5,117.5C 228.855,118.522 229.522,119.189 230.5,119.5C 231.511,123.112 231.678,126.779 231,130.5C 229.141,131.579 227.641,132.912 226.5,134.5C 224.833,130.347 222.5,126.514 219.5,123C 207.436,116.941 199.269,120.441 195,133.5C 194.051,144.55 192.718,155.55 191,166.5C 189.438,168.91 187.271,170.244 184.5,170.5C 179.489,168.578 174.656,166.245 170,163.5C 170.85,155.422 172.35,147.422 174.5,139.5C 175.924,137.485 176.59,135.152 176.5,132.5C 178.452,131.768 180.119,131.768 181.5,132.5C 176.85,125.55 174.183,117.884 173.5,109.5C 172.327,116.469 173.661,122.969 177.5,129C 177.272,129.399 176.938,129.565 176.5,129.5C 174.833,128.833 173.167,128.167 171.5,127.5C 171.167,126.5 170.5,125.833 169.5,125.5C 166.991,124.079 164.657,122.412 162.5,120.5C 162.167,119.5 161.5,118.833 160.5,118.5C 156.849,114.842 153.516,110.842 150.5,106.5C 150.56,105.957 150.893,105.624 151.5,105.5C 155.697,107.295 160.031,108.128 164.5,108C 160.367,104.869 156.534,101.369 153,97.5C 150.272,92.7144 148.106,87.7144 146.5,82.5C 146.875,91.7417 150.875,99.2417 158.5,105C 154.598,104.098 150.598,103.265 146.5,102.5C 142.219,101.864 138.219,100.364 134.5,98C 127.597,90.4365 120.764,82.9365 114,75.5C 109.764,80.961 105.764,86.6277 102,92.5C 98.9641,95.7044 95.7974,98.7044 92.5,101.5C 89.8818,102.945 87.3818,104.611 85,106.5C 87.5956,99.4624 89.5956,92.1291 91,84.5C 91.7975,82.7412 91.6309,81.0745 90.5,79.5C 88.6814,86.0703 87.1814,92.7369 86,99.5C 79.5634,109.66 81.2301,110.994 91,103.5C 91.3988,103.728 91.5654,104.062 91.5,104.5C 89.4716,109.862 85.805,113.528 80.5,115.5C 78.5659,116.11 76.8993,117.11 75.5,118.5C 71.7099,119.895 68.0432,121.562 64.5,123.5C 62.3208,124.059 60.1542,124.726 58,125.5C 57.5,125.167 57,124.833 56.5,124.5C 59.1402,121.423 59.1402,118.423 56.5,115.5C 56.5,115.167 56.5,114.833 56.5,114.5C 56.9746,111.677 55.9746,109.677 53.5,108.5C 49.4673,109.599 45.9673,111.599 43,114.5C 43.7838,110.895 44.6171,107.228 45.5,103.5C 47.9143,100.386 50.5809,97.3859 53.5,94.5C 49.2506,92.6387 44.9173,90.972 40.5,89.5C 38.9546,85.6202 36.6212,82.2869 33.5,79.5C 35.129,77.8041 34.7957,76.8041 32.5,76.5C 40.0213,69.4894 47.8546,61.8228 56,53.5C 56.7112,51.6332 56.2112,50.1332 54.5,49C 52.2884,48.2109 50.2884,48.3775 48.5,49.5C 47.325,49.719 46.325,49.3857 45.5,48.5C 45.6236,47.8933 45.9569,47.56 46.5,47.5C 49.3229,44.5249 51.6563,41.1916 53.5,37.5C 60.4663,30.011 68.7996,24.511 78.5,21C 79.2524,20.3292 79.5858,19.4959 79.5,18.5C 79.8333,18.5 80.1667,18.5 80.5,18.5C 82.6835,20.8561 85.3501,21.1895 88.5,19.5C 89.7733,18.7435 89.7733,18.0768 88.5,17.5C 85.8375,11.5173 85.8375,5.51728 88.5,-0.5 Z"/></g>
<g><path style="opacity:0.165" fill="#737785" d="M 87.5,-0.5 C 87.8333,-0.5 88.1667,-0.5 88.5,-0.5C 85.8375,5.51728 85.8375,11.5173 88.5,17.5C 88.0623,18.5063 87.3957,18.5063 86.5,17.5C 83.6613,11.346 83.9946,5.34604 87.5,-0.5 Z"/></g>
<g><path style="opacity:0.49" fill="#58595b" d="M 92.5,-0.5 C 92.8333,-0.5 93.1667,-0.5 93.5,-0.5C 96.2423,3.37736 99.909,6.04402 104.5,7.5C 98.8132,7.87872 94.8132,5.21206 92.5,-0.5 Z"/></g>
<g><path style="opacity:0.263" fill="#5b5d65" d="M 148.5,12.5 C 138.306,10.8542 127.973,8.52082 117.5,5.5C 118.13,8.31551 117.464,10.9822 115.5,13.5C 112.461,12.4314 109.461,11.2647 106.5,10C 105.748,9.32924 105.414,8.4959 105.5,7.5C 108.356,9.0934 111.356,10.4267 114.5,11.5C 115.287,10.7579 115.953,9.92458 116.5,9C 113.697,6.77825 113.863,4.94492 117,3.5C 128.037,5.06402 138.537,8.06402 148.5,12.5 Z"/></g>
<g><path style="opacity:0.078" fill="#5b5c60" d="M 149.5,12.5 C 158.26,15.7144 166.594,19.7144 174.5,24.5C 174.5,25.1667 174.833,25.5 175.5,25.5C 175.5,26.1667 175.5,26.8333 175.5,27.5C 166.376,22.9495 157.709,17.9495 149.5,12.5 Z"/></g>
<g><path style="opacity:1" fill="#3c3d40" d="M 86.5,17.5 C 87.3957,18.5063 88.0623,18.5063 88.5,17.5C 89.7733,18.0768 89.7733,18.7435 88.5,19.5C 85.3501,21.1895 82.6835,20.8561 80.5,18.5C 82.4352,17.8505 84.4352,17.5172 86.5,17.5 Z"/></g>
<g><path style="opacity:0.365" fill="#57585a" d="M 79.5,18.5 C 79.5858,19.4959 79.2524,20.3292 78.5,21C 68.7996,24.511 60.4663,30.011 53.5,37.5C 58.0398,30.1394 64.3731,24.6394 72.5,21C 74.743,19.8638 77.0763,19.0305 79.5,18.5 Z"/></g>
<g><path style="opacity:0.255" fill="#5b5c61" d="M 173.5,16.5 C 176.992,17.4097 179.992,19.0764 182.5,21.5C 182.631,22.2389 182.464,22.9056 182,23.5C 179.691,22.0248 177.524,20.3581 175.5,18.5C 174.893,18.6236 174.56,18.9569 174.5,19.5C 173.596,18.791 173.263,17.791 173.5,16.5 Z"/></g>
<g><path style="opacity:0.027" fill="#939bb7" d="M 173.5,16.5 C 173.263,17.791 173.596,18.791 174.5,19.5C 175.82,22.1401 177.153,24.8068 178.5,27.5C 177.575,28.5624 176.575,28.5624 175.5,27.5C 175.5,26.8333 175.5,26.1667 175.5,25.5C 174.833,25.5 174.5,25.1667 174.5,24.5C 173.793,22.2186 172.793,20.0519 171.5,18C 172.044,17.2828 172.711,16.7828 173.5,16.5 Z"/></g>
<g><path style="opacity:0.047" fill="#676a72" d="M 183.5,22.5 C 188.049,24.8688 192.215,27.8688 196,31.5C 199.724,37.6154 202.891,43.9487 205.5,50.5C 204.811,51.7736 203.977,51.7736 203,50.5C 200.615,39.2188 194.448,30.7188 184.5,25C 183.748,24.3292 183.414,23.4959 183.5,22.5 Z"/></g>
<g><path style="opacity:0.718" fill="#64666b" d="M 53.5,37.5 C 51.6563,41.1916 49.3229,44.5249 46.5,47.5C 47.8514,43.4584 50.1848,40.1251 53.5,37.5 Z"/></g>
<g><path style="opacity:0.318" fill="#5d5e65" d="M 222.5,60.5 C 221.831,54.6657 221.664,48.6657 222,42.5C 220.395,39.7265 218.228,39.0598 215.5,40.5C 212.479,44.1877 209.146,47.5211 205.5,50.5C 208.459,46.5308 211.459,42.5308 214.5,38.5C 219.734,37.5452 223.068,39.7119 224.5,45C 223.869,50.1852 223.202,55.3518 222.5,60.5 Z"/></g>
<g><path style="opacity:1" fill="#444343" d="M 48.5,49.5 C 50.2884,48.3775 52.2884,48.2109 54.5,49C 56.2112,50.1332 56.7112,51.6332 56,53.5C 47.8546,61.8228 40.0213,69.4894 32.5,76.5C 32.5,76.8333 32.5,77.1667 32.5,77.5C 29.7707,76.3633 27.104,75.0299 24.5,73.5C 27.1071,72.6816 29.7737,72.1816 32.5,72C 41.0534,66.453 48.7201,59.7863 55.5,52C 53.2906,50.8563 50.9572,50.023 48.5,49.5 Z"/></g>
<g><path style="opacity:0.827" fill="#575860" d="M 222.5,62.5 C 222.042,66.5384 221.376,70.5384 220.5,74.5C 225.006,74.8518 229.339,74.1852 233.5,72.5C 235.086,70.8273 235.753,68.8273 235.5,66.5C 236.833,66.5 238.167,66.5 239.5,66.5C 240.218,75.022 238.885,83.1887 235.5,91C 235.164,92.0299 234.497,92.5299 233.5,92.5C 237.132,85.9518 238.299,78.9518 237,71.5C 231.961,75.6766 226.128,77.3433 219.5,76.5C 219.504,72.9726 219.837,69.4726 220.5,66C 220.608,64.3189 221.275,63.1522 222.5,62.5 Z"/></g>
<g><path style="opacity:0.173" fill="#8c93aa" d="M 32.5,76.5 C 34.7957,76.8041 35.129,77.8041 33.5,79.5C 32.6618,79.8417 32.3284,80.5084 32.5,81.5C 31.7611,81.631 31.0944,81.4643 30.5,81C 31.305,79.8873 31.9717,78.7206 32.5,77.5C 32.5,77.1667 32.5,76.8333 32.5,76.5 Z"/></g>
<g><path style="opacity:1" fill="#dec0a2" d="M 146.5,102.5 C 148.167,103.5 149.5,104.833 150.5,106.5C 153.516,110.842 156.849,114.842 160.5,118.5C 153.563,117.113 146.563,116.113 139.5,115.5C 132.899,115.599 126.566,116.766 120.5,119C 118.376,120.122 116.543,121.622 115,123.5C 112.861,128.086 111.361,132.753 110.5,137.5C 108.5,136.167 106.5,136.167 104.5,137.5C 103.675,133.353 103.175,129.019 103,124.5C 102.215,122.714 101.049,121.214 99.5,120C 93.1798,117.907 86.8465,116.407 80.5,115.5C 85.805,113.528 89.4716,109.862 91.5,104.5C 92.404,103.791 92.7373,102.791 92.5,101.5C 95.7974,98.7044 98.9641,95.7044 102,92.5C 105.764,86.6277 109.764,80.961 114,75.5C 120.764,82.9365 127.597,90.4365 134.5,98C 138.219,100.364 142.219,101.864 146.5,102.5 Z"/></g>
<g><path style="opacity:0.725" fill="#525254" d="M 33.5,79.5 C 36.6212,82.2869 38.9546,85.6202 40.5,89.5C 44.9173,90.972 49.2506,92.6387 53.5,94.5C 50.5809,97.3859 47.9143,100.386 45.5,103.5C 46.5429,99.9624 48.5429,97.1291 51.5,95C 46.7574,93.5304 42.0907,91.8637 37.5,90C 37.9778,86.2284 36.3111,83.3951 32.5,81.5C 32.3284,80.5084 32.6618,79.8417 33.5,79.5 Z"/></g>
<g><path style="opacity:1" fill="#3a3b3b" d="M 150.5,106.5 C 149.5,104.833 148.167,103.5 146.5,102.5C 150.598,103.265 154.598,104.098 158.5,105C 150.875,99.2417 146.875,91.7417 146.5,82.5C 148.106,87.7144 150.272,92.7144 153,97.5C 156.534,101.369 160.367,104.869 164.5,108C 160.031,108.128 155.697,107.295 151.5,105.5C 150.893,105.624 150.56,105.957 150.5,106.5 Z"/></g>
<g><path style="opacity:1" fill="#3b3b3c" d="M 92.5,101.5 C 92.7373,102.791 92.404,103.791 91.5,104.5C 91.5654,104.062 91.3988,103.728 91,103.5C 81.2301,110.994 79.5634,109.66 86,99.5C 87.1814,92.7369 88.6814,86.0703 90.5,79.5C 91.6309,81.0745 91.7975,82.7412 91,84.5C 89.5956,92.1291 87.5956,99.4624 85,106.5C 87.3818,104.611 89.8818,102.945 92.5,101.5 Z"/></g>
<g><path style="opacity:0.298" fill="#797c8d" d="M 232.5,106.5 C 234.104,107.287 234.771,108.62 234.5,110.5C 233.326,109.486 232.66,108.153 232.5,106.5 Z"/></g>
<g><path style="opacity:0.012" fill="#6d7180" d="M 45.5,103.5 C 44.6171,107.228 43.7838,110.895 43,114.5C 45.9673,111.599 49.4673,109.599 53.5,108.5C 55.9746,109.677 56.9746,111.677 56.5,114.5C 55.5788,113.019 54.4121,111.686 53,110.5C 49.1237,111.884 45.6237,113.884 42.5,116.5C 41.2516,111.592 42.2516,107.259 45.5,103.5 Z"/></g>
<g><path style="opacity:0.086" fill="#5b5d63" d="M 234.5,110.5 C 235.708,113.261 237.375,115.761 239.5,118C 239.138,119.885 237.971,120.719 236,120.5C 234.467,120.227 232.967,119.894 231.5,119.5C 231.167,118.167 230.833,118.167 230.5,119.5C 229.522,119.189 228.855,118.522 228.5,117.5C 230.856,116.706 233.189,117.039 235.5,118.5C 235.833,118.167 236.167,117.833 236.5,117.5C 235.423,115.271 234.756,112.937 234.5,110.5 Z"/></g>
<g><path style="opacity:1" fill="#e9e8e8" d="M 162.5,120.5 C 164.657,122.412 166.991,124.079 169.5,125.5C 170.553,136.432 167.886,146.266 161.5,155C 154.386,159.847 146.552,161.68 138,160.5C 114.297,161.826 106.631,151.159 115,128.5C 117.065,122.038 121.565,118.872 128.5,119C 139.916,118.114 151.249,118.614 162.5,120.5 Z"/></g>
<g><path style="opacity:1" fill="#dcba9f" d="M 226.5,134.5 C 227.659,146.85 225.492,158.517 220,169.5C 214.287,177.606 206.454,181.272 196.5,180.5C 193.253,180.585 190.419,179.585 188,177.5C 187.64,179.608 186.973,181.608 186,183.5C 183.283,186.71 180.783,190.044 178.5,193.5C 162.351,208.407 143.351,217.741 121.5,221.5C 121.858,219.033 123.191,216.866 125.5,215C 133.222,208.945 141.222,203.278 149.5,198C 159.476,188.868 165.809,177.701 168.5,164.5C 161.926,163.172 155.426,163.505 149,165.5C 143.445,164.068 137.945,163.068 132.5,162.5C 143.276,163.955 153.276,161.955 162.5,156.5C 164.919,154.246 166.752,151.579 168,148.5C 170.291,141.674 171.458,134.674 171.5,127.5C 173.167,128.167 174.833,128.833 176.5,129.5C 176.5,130.5 176.5,131.5 176.5,132.5C 175.076,134.515 174.41,136.848 174.5,139.5C 172.35,147.422 170.85,155.422 170,163.5C 174.656,166.245 179.489,168.578 184.5,170.5C 187.271,170.244 189.438,168.91 191,166.5C 192.718,155.55 194.051,144.55 195,133.5C 199.269,120.441 207.436,116.941 219.5,123C 222.5,126.514 224.833,130.347 226.5,134.5 Z"/></g>
<g><path style="opacity:1" fill="#edecec" d="M 75.5,118.5 C 81.8885,118.312 88.2218,118.812 94.5,120C 97.196,120.69 99.3626,122.19 101,124.5C 104.981,148.844 94.8148,160.011 70.5,158C 66.9957,157.697 63.6624,156.863 60.5,155.5C 61.1906,144.743 62.5239,134.076 64.5,123.5C 68.0432,121.562 71.7099,119.895 75.5,118.5 Z"/></g>
<g><path style="opacity:1" fill="#494a4a" d="M 176.5,132.5 C 176.5,131.5 176.5,130.5 176.5,129.5C 176.938,129.565 177.272,129.399 177.5,129C 173.661,122.969 172.327,116.469 173.5,109.5C 174.183,117.884 176.85,125.55 181.5,132.5C 180.119,131.768 178.452,131.768 176.5,132.5 Z"/></g>
<g><path style="opacity:1" fill="#47474d" d="M 56.5,115.5 C 59.1402,118.423 59.1402,121.423 56.5,124.5C 57,124.833 57.5,125.167 58,125.5C 60.1542,124.726 62.3208,124.059 64.5,123.5C 62.5239,134.076 61.1906,144.743 60.5,155.5C 59.8333,155.167 59.1667,154.833 58.5,154.5C 58.9685,147.251 59.9685,140.084 61.5,133C 61.715,127.554 59.0483,125.221 53.5,126C 55.8146,124.632 55.8146,123.799 53.5,123.5C 48.4954,125.006 45.3287,128.34 44,133.5C 43.16,136.202 42.3267,138.868 41.5,141.5C 41.1502,148.395 40.1502,155.062 38.5,161.5C 39.895,160.352 39.7284,159.352 38,158.5C 36.9114,148.607 38.4114,139.107 42.5,130C 44.8387,126.328 47.8387,123.328 51.5,121C 53.4406,120.257 55.2739,120.424 57,121.5C 57.1805,119.512 57.0138,117.512 56.5,115.5 Z"/></g>
<g><path style="opacity:1" fill="#dcb99f" d="M 58.5,154.5 C 58.5,154.833 58.5,155.167 58.5,155.5C 57.6739,160.316 57.1739,165.316 57,170.5C 55.0934,174.01 52.2601,175.176 48.5,174C 46.2659,171.937 44.2659,169.771 42.5,167.5C 41.6602,158.862 41.3268,150.195 41.5,141.5C 42.3267,138.868 43.16,136.202 44,133.5C 45.3287,128.34 48.4954,125.006 53.5,123.5C 55.8146,123.799 55.8146,124.632 53.5,126C 59.0483,125.221 61.715,127.554 61.5,133C 59.9685,140.084 58.9685,147.251 58.5,154.5 Z"/></g>
<g><path style="opacity:0.378" fill="#515358" d="M 230.5,119.5 C 230.833,119.5 231.167,119.5 231.5,119.5C 232.176,121.753 233.176,124.087 234.5,126.5C 233.224,130.072 231.224,133.072 228.5,135.5C 227.833,135.167 227.167,134.833 226.5,134.5C 227.641,132.912 229.141,131.579 231,130.5C 231.678,126.779 231.511,123.112 230.5,119.5 Z"/></g>
<g><path style="opacity:1" fill="#1e1e1d" d="M 87.5,134.5 C 92.1585,134.015 93.4919,135.848 91.5,140C 87.2662,140.267 85.9329,138.434 87.5,134.5 Z"/></g>
<g><path style="opacity:1" fill="#9d7d26" d="M 110.5,137.5 C 110.5,138.167 110.5,138.833 110.5,139.5C 108.5,139.5 106.5,139.5 104.5,139.5C 104.5,138.833 104.5,138.167 104.5,137.5C 106.5,136.167 108.5,136.167 110.5,137.5 Z"/></g>
<g><path style="opacity:1" fill="#635e59" d="M 176.5,132.5 C 176.59,135.152 175.924,137.485 174.5,139.5C 174.41,136.848 175.076,134.515 176.5,132.5 Z"/></g>
<g><path style="opacity:1" fill="#1a1714" d="M 205.5,138.5 C 207.591,138.318 209.591,138.652 211.5,139.5C 212.833,140.167 212.833,140.833 211.5,141.5C 210.264,140.754 208.93,140.421 207.5,140.5C 207.335,144.182 207.501,147.848 208,151.5C 211.406,154.818 211.24,157.985 207.5,161C 205.432,161.687 203.432,161.52 201.5,160.5C 200.167,159.833 200.167,159.167 201.5,158.5C 207.02,160.922 209.186,159.256 208,153.5C 198.889,150.098 198.055,145.098 205.5,138.5 Z"/></g>
<g><path style="opacity:1" fill="#dfbca1" d="M 104.5,139.5 C 106.5,139.5 108.5,139.5 110.5,139.5C 108.235,152.678 113.569,160.345 126.5,162.5C 125.761,162.369 125.094,162.536 124.5,163C 125.5,163.333 126.5,163.667 127.5,164C 131.358,164.079 135.024,164.746 138.5,166C 129.833,166.333 121.167,166.667 112.5,167C 107.666,170.252 102.666,173.252 97.5,176C 94.0764,176.747 90.7431,176.58 87.5,175.5C 84.0222,171.978 83.6888,168.144 86.5,164C 88.8333,163.333 91.1667,163.333 93.5,164C 95.9768,165.643 98.3102,167.476 100.5,169.5C 101.521,168.998 101.688,168.332 101,167.5C 97.2577,162.709 92.4244,160.876 86.5,162C 83.1558,163.894 81.8224,166.727 82.5,170.5C 81.5655,169.432 81.2322,168.099 81.5,166.5C 74.8333,166.5 68.1667,166.5 61.5,166.5C 61.5,164.167 61.5,161.833 61.5,159.5C 62.791,159.737 63.791,159.404 64.5,158.5C 73.1982,161.221 81.8649,161.054 90.5,158C 93.9024,156.6 96.7357,154.433 99,151.5C 101.137,147.491 102.97,143.491 104.5,139.5 Z"/></g>
<g><path style="opacity:1" fill="#6f2924" d="M 80.5,115.5 C 86.8465,116.407 93.1798,117.907 99.5,120C 101.049,121.214 102.215,122.714 103,124.5C 103.175,129.019 103.675,133.353 104.5,137.5C 104.5,138.167 104.5,138.833 104.5,139.5C 102.97,143.491 101.137,147.491 99,151.5C 96.7357,154.433 93.9024,156.6 90.5,158C 81.8649,161.054 73.1982,161.221 64.5,158.5C 62.8828,157.962 61.2161,157.629 59.5,157.5C 59.1667,156.833 58.8333,156.167 58.5,155.5C 58.5,155.167 58.5,154.833 58.5,154.5C 59.1667,154.833 59.8333,155.167 60.5,155.5C 63.6624,156.863 66.9957,157.697 70.5,158C 94.8148,160.011 104.981,148.844 101,124.5C 99.3626,122.19 97.196,120.69 94.5,120C 88.2218,118.812 81.8885,118.312 75.5,118.5C 76.8993,117.11 78.5659,116.11 80.5,115.5 Z"/></g>
<g><path style="opacity:1" fill="#171412" d="M 51.5,138.5 C 52.793,139.842 53.6264,141.509 54,143.5C 54.2963,146.706 54.7963,149.872 55.5,153C 55.1667,153.5 54.8333,154 54.5,154.5C 53.8333,153.833 53.1667,153.167 52.5,152.5C 51.3914,153.59 50.3914,153.59 49.5,152.5C 51.2171,148.003 51.8838,143.337 51.5,138.5 Z"/></g>
<g><path style="opacity:1" fill="#6e231e" d="M 160.5,118.5 C 161.5,118.833 162.167,119.5 162.5,120.5C 151.249,118.614 139.916,118.114 128.5,119C 121.565,118.872 117.065,122.038 115,128.5C 106.631,151.159 114.297,161.826 138,160.5C 146.552,161.68 154.386,159.847 161.5,155C 167.886,146.266 170.553,136.432 169.5,125.5C 170.5,125.833 171.167,126.5 171.5,127.5C 171.458,134.674 170.291,141.674 168,148.5C 166.752,151.579 164.919,154.246 162.5,156.5C 153.276,161.955 143.276,163.955 132.5,162.5C 130.5,162.5 128.5,162.5 126.5,162.5C 113.569,160.345 108.235,152.678 110.5,139.5C 110.5,138.833 110.5,138.167 110.5,137.5C 111.361,132.753 112.861,128.086 115,123.5C 116.543,121.622 118.376,120.122 120.5,119C 126.566,116.766 132.899,115.599 139.5,115.5C 146.563,116.113 153.563,117.113 160.5,118.5 Z"/></g>
<g><path style="opacity:1" fill="#1f1f1f" d="M 122.5,134.5 C 127.159,134.015 128.492,135.848 126.5,140C 121.728,140.81 120.395,138.977 122.5,134.5 Z"/></g>
<g><path style="opacity:0.994" fill="#2e2c27" d="M 41.5,141.5 C 41.3268,150.195 41.6602,158.862 42.5,167.5C 41.607,165.703 40.2737,164.37 38.5,163.5C 38.5,162.833 38.5,162.167 38.5,161.5C 40.1502,155.062 41.1502,148.395 41.5,141.5 Z"/></g>
<g><path style="opacity:0.996" fill="#26252a" d="M 226.5,134.5 C 227.167,134.833 227.833,135.167 228.5,135.5C 229.81,144.329 229.143,152.995 226.5,161.5C 224.32,164.526 222.653,167.86 221.5,171.5C 219.738,172.262 218.738,173.596 218.5,175.5C 218.5,176.167 218.167,176.5 217.5,176.5C 215.5,176.5 214.5,177.5 214.5,179.5C 211.912,181.592 208.912,182.925 205.5,183.5C 204.833,183.167 204.167,182.833 203.5,182.5C 201.167,181.833 198.833,181.167 196.5,180.5C 206.454,181.272 214.287,177.606 220,169.5C 225.492,158.517 227.659,146.85 226.5,134.5 Z"/></g>
<g><path style="opacity:1" fill="#343232" d="M 87.5,175.5 C 87.1034,176.525 86.4368,176.692 85.5,176C 84.0289,174.417 83.0289,172.583 82.5,170.5C 81.8224,166.727 83.1558,163.894 86.5,162C 92.4244,160.876 97.2577,162.709 101,167.5C 101.688,168.332 101.521,168.998 100.5,169.5C 98.3102,167.476 95.9768,165.643 93.5,164C 91.1667,163.333 88.8333,163.333 86.5,164C 83.6888,168.144 84.0222,171.978 87.5,175.5 Z"/></g>
<g><path style="opacity:1" fill="#dec4a3" d="M 59.5,157.5 C 61.2161,157.629 62.8828,157.962 64.5,158.5C 63.791,159.404 62.791,159.737 61.5,159.5C 61.5,161.833 61.5,164.167 61.5,166.5C 68.1667,166.5 74.8333,166.5 81.5,166.5C 81.2322,168.099 81.5655,169.432 82.5,170.5C 83.0289,172.583 84.0289,174.417 85.5,176C 86.4368,176.692 87.1034,176.525 87.5,175.5C 90.7431,176.58 94.0764,176.747 97.5,176C 102.666,173.252 107.666,170.252 112.5,167C 121.167,166.667 129.833,166.333 138.5,166C 135.024,164.746 131.358,164.079 127.5,164C 126.5,163.667 125.5,163.333 124.5,163C 125.094,162.536 125.761,162.369 126.5,162.5C 128.5,162.5 130.5,162.5 132.5,162.5C 137.945,163.068 143.445,164.068 149,165.5C 155.426,163.505 161.926,163.172 168.5,164.5C 165.809,177.701 159.476,188.868 149.5,198C 141.222,203.278 133.222,208.945 125.5,215C 123.191,216.866 121.858,219.033 121.5,221.5C 107.836,223.637 94.5024,222.47 81.5,218C 70.9345,212.096 64.1011,203.262 61,191.5C 59.7792,180.2 59.2792,168.866 59.5,157.5 Z"/></g>
<g><path style="opacity:0.149" fill="#94a1c2" d="M 226.5,161.5 C 225.868,165.431 224.201,168.765 221.5,171.5C 222.653,167.86 224.32,164.526 226.5,161.5 Z"/></g>
<g><path style="opacity:1" fill="#231e1a" d="M 170.5,170.5 C 170.56,169.957 170.893,169.624 171.5,169.5C 175.195,171.849 179.195,173.349 183.5,174C 178.626,174.763 174.293,173.596 170.5,170.5 Z"/></g>
<g><path style="opacity:0.02" fill="#8e9ac0" d="M 221.5,171.5 C 221.262,173.404 220.262,174.738 218.5,175.5C 218.738,173.596 219.738,172.262 221.5,171.5 Z"/></g>
<g><path style="opacity:1" fill="#2e2822" d="M 170.5,175.5 C 171.274,174.853 172.274,174.52 173.5,174.5C 176.401,175.621 179.401,176.621 182.5,177.5C 181.667,177.833 180.833,178.167 180,178.5C 177.084,176.796 173.917,175.796 170.5,175.5 Z"/></g>
<g><path style="opacity:0.012" fill="#7c879f" d="M 217.5,176.5 C 216.833,177.833 215.833,178.833 214.5,179.5C 214.5,177.5 215.5,176.5 217.5,176.5 Z"/></g>
<g><path style="opacity:1" fill="#0a0a09" d="M 196.5,180.5 C 198.833,181.167 201.167,181.833 203.5,182.5C 202.741,185.849 201.074,188.682 198.5,191C 196.536,191.624 194.869,191.124 193.5,189.5C 192.145,191.521 190.479,193.188 188.5,194.5C 184.958,194.813 181.625,194.479 178.5,193.5C 180.783,190.044 183.283,186.71 186,183.5C 186.973,181.608 187.64,179.608 188,177.5C 190.419,179.585 193.253,180.585 196.5,180.5 Z"/></g>
<g><path style="opacity:1" fill="#393029" d="M 172.5,181.5 C 174.693,180.203 177.027,180.203 179.5,181.5C 177.141,182.714 174.808,182.714 172.5,181.5 Z"/></g>
<g><path style="opacity:0.18" fill="#6f6f71" d="M 203.5,182.5 C 204.167,182.833 204.833,183.167 205.5,183.5C 204.554,187.883 202.221,191.383 198.5,194C 196.536,194.624 194.869,194.124 193.5,192.5C 192.019,193.48 190.685,194.647 189.5,196C 185.911,196.207 182.411,196.707 179,197.5C 178.617,196.944 178.117,196.611 177.5,196.5C 181.167,195.833 184.833,195.167 188.5,194.5C 190.479,193.188 192.145,191.521 193.5,189.5C 194.869,191.124 196.536,191.624 198.5,191C 201.074,188.682 202.741,185.849 203.5,182.5 Z"/></g>
<g><path style="opacity:1" fill="#343232" d="M 76.5,189.5 C 79.729,191.743 83.3957,193.077 87.5,193.5C 85.2351,194.647 82.9018,194.814 80.5,194C 78.249,193.252 76.9156,191.752 76.5,189.5 Z"/></g>
<g><path style="opacity:1" fill="#706962" d="M 174.5,203.5 C 173.121,214.928 167.788,224.261 158.5,231.5C 158.75,229.326 159.75,227.659 161.5,226.5C 164.552,223.424 167.386,220.09 170,216.5C 172.288,213.597 172.788,210.597 171.5,207.5C 171.5,206.833 171.167,206.5 170.5,206.5C 170.5,205.833 170.833,205.5 171.5,205.5C 172.167,205.5 172.5,205.167 172.5,204.5C 173.167,204.167 173.833,203.833 174.5,203.5 Z"/></g>
<g><path style="opacity:1" fill="#f1f0ee" d="M 195.5,263.5 C 174.5,275.506 151.833,280.339 127.5,278C 118.351,274.727 109.351,271.061 100.5,267C 97.7047,265.207 95.2047,263.04 93,260.5C 92.3333,259.5 92.3333,258.5 93,257.5C 95.5891,251.984 98.9225,246.984 103,242.5C 108.702,236.63 114.535,230.964 120.5,225.5C 121.239,225.369 121.906,225.536 122.5,226C 119.916,230.966 119.916,235.8 122.5,240.5C 125.701,247.105 131.035,250.105 138.5,249.5C 139.492,249.672 140.158,249.338 140.5,248.5C 145.358,247.404 149.691,245.238 153.5,242C 159.482,236.863 164.482,231.03 168.5,224.5C 170.262,223.738 171.262,222.404 171.5,220.5C 176.987,215.834 178.987,209.834 177.5,202.5C 201.35,207.2 220.35,219.367 234.5,239C 232.523,241.302 230.19,243.302 227.5,245C 216.934,251.446 206.267,257.613 195.5,263.5 Z"/></g>
<g><path style="opacity:1" fill="#debaa1" d="M 168.5,204.5 C 167.969,207.237 167.136,209.904 166,212.5C 161.273,218.897 156.94,225.564 153,232.5C 152.26,233.749 152.427,234.749 153.5,235.5C 148.416,241.9 141.749,245.233 133.5,245.5C 131.669,243.155 130.502,240.488 130,237.5C 129.728,232.451 129.228,227.451 128.5,222.5C 142.784,218.693 156.117,212.693 168.5,204.5 Z"/></g>
<g><path style="opacity:1" fill="#cbcdce" d="M 171.5,220.5 C 169.738,221.262 168.738,222.596 168.5,224.5C 163.631,229.688 158.631,234.854 153.5,240C 148.922,243.548 144.589,246.381 140.5,248.5C 140.158,249.338 139.492,249.672 138.5,249.5C 135.184,248.653 131.85,247.486 128.5,246C 126.63,243.96 124.63,242.127 122.5,240.5C 121.328,236.487 121.495,232.487 123,228.5C 123.232,229.737 123.732,230.737 124.5,231.5C 122.77,237.603 124.77,241.937 130.5,244.5C 130.842,245.338 131.508,245.672 132.5,245.5C 136.074,246.774 139.741,246.607 143.5,245C 148.311,242.015 152.644,238.515 156.5,234.5C 156.932,233.29 157.599,232.29 158.5,231.5C 167.788,224.261 173.121,214.928 174.5,203.5C 174.369,202.624 174.702,201.957 175.5,201.5C 176.659,205.122 176.825,208.789 176,212.5C 174.223,215.059 172.723,217.726 171.5,220.5 Z"/></g>
<g><path style="opacity:1" fill="#7a2c1b" d="M 169.5,211.5 C 167.108,216.616 164.441,221.616 161.5,226.5C 159.75,227.659 158.75,229.326 158.5,231.5C 157.599,232.29 156.932,233.29 156.5,234.5C 155.833,234.5 155.167,234.5 154.5,234.5C 158.756,226.313 163.756,218.646 169.5,211.5 Z"/></g>
<g><path style="opacity:1" fill="#818387" d="M 124.5,229.5 C 124.5,230.167 124.5,230.833 124.5,231.5C 123.732,230.737 123.232,229.737 123,228.5C 121.495,232.487 121.328,236.487 122.5,240.5C 119.916,235.8 119.916,230.966 122.5,226C 121.906,225.536 121.239,225.369 120.5,225.5C 119.833,225.5 119.167,225.5 118.5,225.5C 118.5,225.167 118.5,224.833 118.5,224.5C 120.309,223.709 122.309,223.709 124.5,224.5C 124.5,226.167 124.5,227.833 124.5,229.5 Z"/></g>
<g><path style="opacity:1" fill="#c9ab22" d="M 170.5,202.5 C 171.404,203.209 171.737,204.209 171.5,205.5C 170.833,205.5 170.5,205.833 170.5,206.5C 169.662,206.842 169.328,207.508 169.5,208.5C 169.5,209.167 169.5,209.833 169.5,210.5C 169.5,210.833 169.5,211.167 169.5,211.5C 163.756,218.646 158.756,226.313 154.5,234.5C 154.5,235.167 154.167,235.5 153.5,235.5C 152.427,234.749 152.26,233.749 153,232.5C 156.94,225.564 161.273,218.897 166,212.5C 167.136,209.904 167.969,207.237 168.5,204.5C 168.833,203.5 169.5,202.833 170.5,202.5 Z"/></g>
<g><path style="opacity:1" fill="#cc9b35" d="M 128.5,222.5 C 129.228,227.451 129.728,232.451 130,237.5C 130.502,240.488 131.669,243.155 133.5,245.5C 133.167,245.5 132.833,245.5 132.5,245.5C 131.508,245.672 130.842,245.338 130.5,244.5C 129.088,242.02 127.422,239.687 125.5,237.5C 126.167,236.833 126.833,236.167 127.5,235.5C 126.613,234.027 125.613,232.694 124.5,231.5C 124.5,230.833 124.5,230.167 124.5,229.5C 125.376,229.631 126.043,229.298 126.5,228.5C 126.39,226.902 126.057,225.235 125.5,223.5C 126.325,222.614 127.325,222.281 128.5,222.5 Z"/></g>
<g><path style="opacity:1" fill="#75554a" d="M 124.5,231.5 C 125.613,232.694 126.613,234.027 127.5,235.5C 126.833,236.167 126.167,236.833 125.5,237.5C 127.422,239.687 129.088,242.02 130.5,244.5C 124.77,241.937 122.77,237.603 124.5,231.5 Z"/></g>
<g><path style="opacity:1" fill="#5d5e5e" d="M 168.5,224.5 C 164.482,231.03 159.482,236.863 153.5,242C 149.691,245.238 145.358,247.404 140.5,248.5C 144.589,246.381 148.922,243.548 153.5,240C 158.631,234.854 163.631,229.688 168.5,224.5 Z"/></g>
<g><path style="opacity:1" fill="#67615e" d="M 154.5,234.5 C 155.167,234.5 155.833,234.5 156.5,234.5C 152.644,238.515 148.311,242.015 143.5,245C 139.741,246.607 136.074,246.774 132.5,245.5C 132.833,245.5 133.167,245.5 133.5,245.5C 141.749,245.233 148.416,241.9 153.5,235.5C 154.167,235.5 154.5,235.167 154.5,234.5 Z"/></g>
<g><path style="opacity:1" fill="#5c5c5c" d="M 122.5,240.5 C 124.63,242.127 126.63,243.96 128.5,246C 131.85,247.486 135.184,248.653 138.5,249.5C 131.035,250.105 125.701,247.105 122.5,240.5 Z"/></g>
<g><path style="opacity:0.647" fill="#383941" d="M 58.5,155.5 C 58.8333,156.167 59.1667,156.833 59.5,157.5C 59.2792,168.866 59.7792,180.2 61,191.5C 64.1011,203.262 70.9345,212.096 81.5,218C 94.5024,222.47 107.836,223.637 121.5,221.5C 143.351,217.741 162.351,208.407 178.5,193.5C 181.625,194.479 184.958,194.813 188.5,194.5C 184.833,195.167 181.167,195.833 177.5,196.5C 177.047,197.458 176.381,198.292 175.5,199C 200.583,204.102 221.083,216.602 237,236.5C 237.808,238.579 237.641,240.579 236.5,242.5C 229.665,246.416 222.998,250.583 216.5,255C 209.405,258.548 202.405,262.048 195.5,265.5C 195.5,264.833 195.5,264.167 195.5,263.5C 206.267,257.613 216.934,251.446 227.5,245C 230.19,243.302 232.523,241.302 234.5,239C 220.35,219.367 201.35,207.2 177.5,202.5C 178.987,209.834 176.987,215.834 171.5,220.5C 172.723,217.726 174.223,215.059 176,212.5C 176.825,208.789 176.659,205.122 175.5,201.5C 174.702,201.957 174.369,202.624 174.5,203.5C 173.833,203.833 173.167,204.167 172.5,204.5C 173.292,203.033 173.292,201.7 172.5,200.5C 171.478,200.855 170.811,201.522 170.5,202.5C 169.5,202.833 168.833,203.5 168.5,204.5C 156.117,212.693 142.784,218.693 128.5,222.5C 127.325,222.281 126.325,222.614 125.5,223.5C 126.057,225.235 126.39,226.902 126.5,228.5C 126.043,229.298 125.376,229.631 124.5,229.5C 124.5,227.833 124.5,226.167 124.5,224.5C 122.309,223.709 120.309,223.709 118.5,224.5C 117.833,224.5 117.5,224.833 117.5,225.5C 101.735,227.184 87.0685,224.017 73.5,216C 60.4976,204.881 54.9976,190.714 57,173.5C 55.3067,177.158 52.6401,178.491 49,177.5C 43.3873,174.391 39.8873,169.724 38.5,163.5C 40.2737,164.37 41.607,165.703 42.5,167.5C 44.2659,169.771 46.2659,171.937 48.5,174C 52.2601,175.176 55.0934,174.01 57,170.5C 57.1739,165.316 57.6739,160.316 58.5,155.5 Z"/></g>
<g><path style="opacity:1" fill="#484849" d="M 171.5,220.5 C 171.262,222.404 170.262,223.738 168.5,224.5C 168.738,222.596 169.738,221.262 171.5,220.5 Z"/></g>
<g><path style="opacity:1" fill="#dec5a6" d="M 171.5,207.5 C 172.788,210.597 172.288,213.597 170,216.5C 167.386,220.09 164.552,223.424 161.5,226.5C 164.441,221.616 167.108,216.616 169.5,211.5C 169.5,211.167 169.5,210.833 169.5,210.5C 170.833,210.5 171.5,209.833 171.5,208.5C 171.5,208.167 171.5,207.833 171.5,207.5 Z"/></g>
<g><path style="opacity:1" fill="#4a3029" d="M 169.5,208.5 C 170.167,208.5 170.833,208.5 171.5,208.5C 171.5,209.833 170.833,210.5 169.5,210.5C 169.5,209.833 169.5,209.167 169.5,208.5 Z"/></g>
<g><path style="opacity:1" fill="#c84514" d="M 170.5,206.5 C 171.167,206.5 171.5,206.833 171.5,207.5C 171.5,207.833 171.5,208.167 171.5,208.5C 170.833,208.5 170.167,208.5 169.5,208.5C 169.328,207.508 169.662,206.842 170.5,206.5 Z"/></g>
<g><path style="opacity:1" fill="#874315" d="M 172.5,204.5 C 172.5,205.167 172.167,205.5 171.5,205.5C 171.737,204.209 171.404,203.209 170.5,202.5C 170.811,201.522 171.478,200.855 172.5,200.5C 173.292,201.7 173.292,203.033 172.5,204.5 Z"/></g>
<g><path style="opacity:0.588" fill="#4a4d5b" d="M 117.5,225.5 C 117.833,225.5 118.167,225.5 118.5,225.5C 119.167,225.5 119.833,225.5 120.5,225.5C 114.535,230.964 108.702,236.63 103,242.5C 98.9225,246.984 95.5891,251.984 93,257.5C 92.3333,258.5 92.3333,259.5 93,260.5C 95.2047,263.04 97.7047,265.207 100.5,267C 109.351,271.061 118.351,274.727 127.5,278C 151.833,280.339 174.5,275.506 195.5,263.5C 195.5,264.167 195.5,264.833 195.5,265.5C 184.8,271.855 173.467,276.521 161.5,279.5C 148.833,279.5 136.167,279.5 123.5,279.5C 113.173,275.504 103.173,270.671 93.5,265C 91.9733,263.307 90.6399,261.473 89.5,259.5C 92.4836,253.537 95.9836,247.87 100,242.5C 105.675,236.658 111.509,230.991 117.5,225.5 Z"/></g>
</svg>
